<svg xmlns:xlink="http://www.w3.org/1999/xlink" xmlns="http://www.w3.org/2000/svg" class="inline-icon inline-icon--medium inline-icon--dark-grey" viewBox="0 0 24 24" width="32"  height="32" >
<path d="M11.511 0.590318C11.5999 0.633175 11.6332 0.665318 11.7221 0.686747C11.7999 0.708175 11.911 0.761747 11.9332 0.697461C11.9666 0.633175 11.9221 0.547461 11.8666 0.472461C11.7777 0.333175 11.7332 0.301032 11.611 0.108175C11.5888 0.0653181 11.5666 0.0224609 11.5221 0.0224609C11.5221 0.0224609 11.511 0.161747 11.4666 0.247461C11.4332 0.322461 11.3443 0.376032 11.3554 0.429604C11.3666 0.483175 11.4221 0.547461 11.511 0.590318V0.590318Z" fill="#555555" stroke-width="0px"></path>
<path d="M20.7998 9.77241C20.6998 9.90098 20.6554 10.1581 20.5109 10.3724C20.3109 10.6724 20.0221 11.0367 19.8776 11.0367C19.7998 11.0367 19.7776 10.8653 19.7776 10.8653C19.7776 10.8653 19.6776 10.576 19.8443 10.2117C19.9665 9.95456 20.0332 9.87956 20.1887 9.6867C20.3332 9.50456 20.4221 9.40813 20.5221 9.21527C20.6109 9.04384 20.6332 9.0117 20.6887 8.74384C20.6998 8.67956 20.6776 8.54027 20.6109 8.55099C20.5221 8.55099 20.2776 9.06527 20.0221 9.35456C19.7776 9.62241 19.3221 9.96527 19.3221 9.96527C19.3221 9.96527 19.2776 9.99741 19.2776 9.9117C19.2665 9.8367 19.2554 9.6117 19.2998 9.40813C19.3443 9.20456 19.4109 9.00099 19.5998 8.69027C19.8109 8.3367 20.0776 8.09027 20.2109 7.9617C20.2665 7.90813 20.4332 7.8117 20.3443 7.75813C20.2665 7.71527 20.0332 7.90813 19.8554 8.0367C19.6332 8.19741 19.5554 8.24027 19.3332 8.49741C19.1109 8.75456 19.0554 8.8617 19.0554 8.8617C19.0554 8.8617 18.8443 9.19384 18.7887 9.51527C18.7332 9.8367 18.7332 10.0188 18.7332 10.0188C18.7332 10.0188 18.7332 10.3081 18.7665 10.4796C18.7887 10.6617 18.8665 10.9403 18.8665 10.9403C18.8665 10.9403 18.9776 11.251 19.0221 11.4438C19.0665 11.6367 19.1443 12.2046 19.1443 12.2046C19.1443 12.2046 19.1998 12.6117 19.1665 12.9974C19.1332 13.3831 19.0998 13.6081 19.0554 13.726C19.0109 13.8438 18.8887 14.1546 18.6887 14.3688C18.4998 14.5724 18.4554 14.6046 18.4554 14.6046C18.4554 14.6046 18.2554 14.7653 18.0887 14.851C17.9221 14.9367 17.6776 15.0438 17.5665 15.076C17.4554 15.0974 17.2998 15.1081 17.2887 15.1081H17.1443L17.0998 15.076L17.0776 14.9903C17.0776 14.9903 16.9665 14.5724 16.8332 14.3046C16.7221 14.0796 16.4887 13.7688 16.4887 13.7688C16.4887 13.7688 16.0887 13.2438 15.7776 12.9546C15.4221 12.6117 15.0221 12.3546 14.7776 12.1724C14.6887 12.1081 14.4887 11.9903 14.4887 11.9903C14.4887 11.9903 13.6776 11.2081 13.3887 10.5867C13.1887 10.1581 13.0554 9.84741 13.1109 9.37599C13.1221 9.26884 13.1665 9.06527 13.1887 9.06527L13.3332 9.10813C13.3443 9.11884 13.4776 9.2367 13.5998 9.27956C13.6665 9.30099 13.7887 9.32241 13.7887 9.32241C13.7887 9.32241 13.8887 9.33313 13.9443 9.34384C13.9998 9.36527 14.0998 9.39741 14.1665 9.42956C14.2332 9.4617 14.3332 9.52599 14.3332 9.52599L14.5221 9.66527L14.7221 9.81527C14.7221 9.81527 14.8332 9.89027 14.8665 9.90099C14.8998 9.9117 14.9221 9.92241 14.9332 9.92241H14.9776C14.9776 9.92241 15.0221 9.9117 15.0332 9.86884C15.0443 9.81527 14.9776 9.85813 14.8776 9.75099C14.7665 9.65456 14.7221 9.56884 14.7221 9.56884C14.7221 9.56884 14.6998 9.48313 14.6109 9.3867C14.5221 9.29027 14.4109 9.20456 14.4109 9.20456C14.4109 9.20456 14.3332 9.15099 14.2221 9.11884C14.1109 9.0867 14.0776 9.0867 14.0665 9.04384C14.0554 9.00099 14.1998 9.02241 14.1998 9.02241C14.1998 9.02241 14.3665 9.04384 14.4998 9.10813C14.6332 9.17241 14.7109 9.24741 14.7109 9.24741L14.7998 9.32241L14.8554 9.37599L14.9109 9.40813C14.9109 9.40813 14.9665 9.4617 14.9776 9.3867C14.9887 9.32241 14.9665 9.26884 14.9554 9.25813L14.8998 9.20456L14.6776 9.02241C14.6109 8.95813 14.5665 8.91527 14.4998 8.87241C14.4332 8.82956 14.3332 8.76527 14.2109 8.72241C14.0998 8.67956 14.0332 8.69027 13.9221 8.6367C13.8443 8.60456 13.7776 8.58313 13.7332 8.51884C13.7221 8.50813 13.6665 8.46527 13.7665 8.4867C13.8665 8.50813 13.9332 8.54027 14.0443 8.5617C14.2221 8.60456 14.3332 8.60456 14.4998 8.65813C14.5665 8.67956 14.6554 8.72241 14.6554 8.72241L14.8665 8.80813C14.8665 8.80813 15.1554 8.95813 15.3554 8.96884C15.5554 8.97956 15.7221 8.9367 15.7887 8.90456C15.8554 8.88313 15.9776 8.80813 16.0109 8.77599C16.0443 8.74384 16.0665 8.7117 16.0665 8.7117L16.0887 8.65813V8.61527C16.0332 8.55099 15.9221 8.72241 15.7443 8.75456C15.5554 8.7867 15.5665 8.80813 15.4443 8.7867C15.3109 8.76527 15.2332 8.73313 15.1332 8.6367C14.9554 8.47598 14.8887 8.32599 14.6554 8.22956C14.5554 8.1867 14.3776 8.14384 14.3776 8.14384C14.3776 8.14384 14.1332 8.06884 13.9998 7.99384C13.8998 7.94027 13.6887 7.90813 13.7554 7.82241C13.7887 7.77956 14.0554 7.92956 14.2554 7.95098C14.3998 7.97241 14.4998 7.9617 14.6109 7.9617C14.7221 7.9617 14.8776 7.92956 14.8998 7.92956C14.9221 7.91884 15.0109 7.92956 15.0887 7.95098C15.1665 7.97241 15.2109 8.00456 15.2887 8.0367C15.3665 8.06884 15.4554 8.12241 15.4776 8.12241L15.5221 8.13313L15.5443 8.1117L15.5554 8.09027L15.5443 8.06884L15.5109 8.04741L15.4443 8.00456C15.4443 8.00456 15.3443 7.95099 15.2554 7.86527C15.1665 7.77956 15.0887 7.68313 14.9554 7.64027C14.8221 7.59741 14.6665 7.57598 14.6665 7.57598L14.5109 7.56527L14.4443 7.55456C14.4443 7.55456 14.3332 7.52241 14.4221 7.50099C14.5109 7.47956 14.5554 7.46884 14.5776 7.46884C14.5887 7.45813 14.7443 7.44741 14.8332 7.47956C14.9221 7.5117 15.0665 7.5867 15.0776 7.5867C15.0887 7.59741 15.2221 7.69384 15.3665 7.72598C15.5109 7.75813 15.6998 7.76884 15.6998 7.76884L15.7887 7.74741L15.8332 7.7367L15.8665 7.71527L15.8554 7.6617C15.8554 7.6617 15.8554 7.61884 15.7887 7.60813C15.7221 7.59741 15.5887 7.57599 15.4665 7.49027C15.3443 7.40456 15.2554 7.31884 15.2554 7.31884C15.2554 7.31884 15.1665 7.24384 14.9887 7.20098C14.8221 7.15813 14.7665 7.15813 14.7665 7.15813L14.7109 7.1367L14.5887 7.08313C14.5887 7.08313 14.5332 7.05099 14.4887 6.99741C14.4443 6.94384 14.3776 6.84741 14.5665 6.90099C14.7554 6.95456 14.7998 6.9867 14.7998 6.9867C14.7998 6.9867 14.8998 7.08313 14.9887 7.09384C15.0443 7.10456 15.0887 7.11527 15.1221 7.07241C15.1776 7.01884 15.0221 6.95456 14.9109 6.87956C14.8221 6.82598 14.7332 6.6867 14.7332 6.6867C14.7332 6.6867 14.6665 6.63313 14.7665 6.65456C14.8665 6.67598 15.0443 6.78313 15.0443 6.78313C15.0443 6.78313 15.1332 6.82598 15.1776 6.8367C15.2109 6.84741 15.2998 6.90098 15.3443 6.92241C15.3776 6.93313 15.4776 6.95456 15.5443 6.9867C15.6332 7.04027 15.6776 7.12599 15.7221 7.15813C15.7665 7.19027 15.7998 7.24384 15.8554 7.25456C15.9109 7.26527 15.9221 7.2867 15.9554 7.26527C15.9887 7.24384 15.9998 7.23313 15.9998 7.23313C15.9998 7.23313 16.0109 7.2117 15.9554 7.17956C15.8998 7.14741 15.8332 7.0617 15.8332 7.0617L15.8109 7.01884L15.7998 6.97598L15.7443 6.89027L15.6443 6.75098C15.6443 6.75098 15.4887 6.54741 15.3443 6.47241C15.2109 6.39741 15.1109 6.35456 15.1109 6.35456C15.1109 6.35456 15.0443 6.32241 15.0109 6.30098C14.9554 6.25813 14.9332 6.22598 14.8887 6.17241C14.8332 6.10813 14.8109 6.06527 14.7443 6.00098C14.6221 5.88313 14.2443 5.81884 14.3887 5.73313C14.4665 5.69027 14.5665 5.7117 14.6109 5.72241C14.6554 5.73313 14.7554 5.77598 14.8554 5.80813C14.9221 5.82956 14.9665 5.82956 15.0332 5.85098C15.0998 5.87241 15.1776 5.88313 15.2109 5.90456C15.2443 5.92598 15.2776 5.96884 15.2998 5.97956C15.3109 5.99027 15.3998 6.12956 15.5554 6.20456C15.7109 6.27956 15.7887 6.33313 15.9443 6.34384C16.0665 6.35456 16.2665 6.3117 16.2665 6.3117C16.2665 6.3117 16.3221 6.29027 16.2776 6.2367C16.2221 6.18313 16.2221 6.17241 16.1776 6.1617C15.9998 6.09741 15.8554 6.11884 15.7221 5.99027C15.6665 5.9367 15.6443 5.92598 15.5998 5.84027C15.5554 5.75456 15.5776 5.73313 15.5443 5.67956C15.5221 5.62598 15.4665 5.55098 15.4665 5.55098C15.4665 5.55098 15.2998 5.35813 15.1221 5.2617C14.9332 5.16527 14.7998 5.06884 14.7776 5.04741C14.7443 5.02598 14.6776 4.94027 14.6776 4.94027L14.6221 4.85456L14.5887 4.79027C14.5665 4.67241 14.7887 4.82241 14.9109 4.86527C15.1109 4.92956 15.2109 5.01527 15.4109 5.07956C15.5221 5.1117 15.5887 5.1117 15.6998 5.15456C15.8887 5.22956 15.9443 5.4117 16.1443 5.43313C16.2554 5.44384 16.4776 5.4867 16.4332 5.39027C16.3887 5.28313 16.1665 5.28313 16.0554 5.15456C15.9998 5.10098 15.9998 5.04741 15.9443 4.99384C15.8554 4.8867 15.6443 4.79027 15.6443 4.79027C15.6443 4.79027 15.5776 4.7367 15.4998 4.5867C15.4332 4.4367 15.2665 4.32956 14.9665 4.19027C14.7665 4.09384 14.3665 4.07241 14.5221 3.97598C14.6109 3.9117 14.6887 3.92241 14.8109 3.95456C14.9332 3.99741 14.9776 4.05098 15.0776 4.09384C15.1776 4.1367 15.2221 4.14741 15.2443 4.15813C15.2665 4.16884 15.3443 4.20098 15.3776 4.20098C15.3998 4.2117 15.5665 4.23313 15.6109 4.24384L15.8332 4.29741L16.0109 4.3617C16.0109 4.3617 16.0998 4.39384 16.1554 4.39384C16.2109 4.39384 16.2998 4.37241 16.2998 4.37241L16.3665 4.32956L16.3776 4.30813C16.3776 4.30813 16.4109 4.25456 16.3221 4.24384C16.2443 4.23313 16.1998 4.23313 16.1887 4.23313L16.1109 4.2117L16.0776 4.20098C16.0776 4.20098 15.9221 4.08313 15.7887 4.02956C15.6443 3.97598 15.6221 3.96527 15.6221 3.96527L15.5665 3.95456L15.4998 3.94384C15.4998 3.94384 15.4443 3.94384 15.3554 3.86884C15.2665 3.79384 15.2332 3.75098 15.1554 3.67598L15.0554 3.57956C15.0554 3.57956 14.9665 3.51527 14.9665 3.4617C14.9776 3.37598 15.1665 3.55813 15.1665 3.55813L15.2998 3.64384C15.2998 3.64384 15.4109 3.71884 15.6109 3.72956C15.8109 3.74027 16.0554 3.67598 16.0554 3.67598C16.0554 3.67598 16.0887 3.65456 16.1998 3.6867C16.3109 3.71884 16.3998 3.78313 16.3998 3.78313L16.4887 3.85813L16.6221 3.99741L16.6443 3.9867C16.6554 3.97598 16.7109 3.92241 16.6109 3.80456C16.5109 3.6867 16.3443 3.57956 16.3443 3.57956C16.3443 3.57956 16.1221 3.45098 15.8998 3.40813C15.6776 3.36527 15.5776 3.36527 15.5776 3.36527C15.5776 3.36527 15.4109 3.36527 15.3109 3.25813C15.2109 3.15098 15.1443 3.04384 15.1443 3.04384L15.1109 2.89384C15.1109 2.89384 15.0554 2.82956 14.9443 2.7867C14.8443 2.74384 14.7332 2.67956 14.7332 2.67956C14.7332 2.67956 14.5665 2.62598 14.5554 2.55098C14.5221 2.4117 14.8332 2.55098 14.9998 2.58313C15.1554 2.61527 15.2221 2.66884 15.3776 2.70098C15.5109 2.73313 15.5887 2.74384 15.7332 2.73313C15.8109 2.73313 15.8554 2.72241 15.9332 2.7117C16.0109 2.7117 16.0665 2.70098 16.1443 2.7117C16.2554 2.73313 16.2998 2.7867 16.4109 2.82956C16.4776 2.8617 16.5109 2.89384 16.5887 2.90456C16.6554 2.91527 16.7887 2.95813 16.7665 2.89384L16.7332 2.85098C16.6776 2.77598 16.6109 2.77598 16.5443 2.72241C16.3998 2.61527 16.3332 2.52956 16.1665 2.45456C16.0554 2.40098 15.9887 2.37956 15.8665 2.35813C15.7776 2.34741 15.7109 2.36884 15.6221 2.34741C15.5221 2.31527 15.4887 2.27241 15.3887 2.21884C15.2332 2.13313 15.1443 2.05813 14.9776 1.99384C14.8665 1.95098 14.6776 1.90813 14.6776 1.90813L14.5998 1.89741L14.5665 1.8867C14.4109 1.83313 14.8443 1.71527 15.0443 1.6617C15.1443 1.64027 15.1887 1.61884 15.2887 1.62956C15.3776 1.64027 15.4776 1.75813 15.5776 1.70456C15.7221 1.62956 15.4109 1.42598 15.3109 1.39384C15.1776 1.34027 14.9443 1.38313 14.9443 1.38313L14.4332 1.37241L14.2887 1.35098C14.2887 1.35098 14.1998 1.35098 14.1332 1.27598C14.0665 1.20098 13.8109 0.900984 13.5221 0.858127C13.2221 0.81527 13.1332 0.858127 13.1109 0.836699C12.8554 0.450984 12.5887 0.36527 12.3887 0.183127C12.3332 0.129556 12.2443 0.0116985 12.2221 0.0224128C12.1998 0.0331271 12.1665 0.193841 12.1109 0.333127C12.0443 0.493841 12.0887 0.568841 12.1221 0.633127C12.1665 0.697413 12.2221 0.74027 12.1109 0.804556C11.9998 0.868841 11.8554 0.847413 11.8554 0.847413C11.8554 0.847413 11.7332 0.825984 11.6332 0.772413C11.5332 0.729556 11.3221 0.643841 11.3221 0.643841C11.3221 0.643841 11.1221 0.59027 10.9887 0.600984C10.8554 0.611699 10.8443 0.622413 10.7443 0.633127C10.6887 0.633127 10.6665 0.633127 10.6109 0.643841C10.5665 0.654556 10.5109 0.622413 10.5109 0.675984C10.5109 0.729556 10.6221 0.729556 10.6998 0.761699C10.7776 0.793841 10.9554 0.793841 10.9221 0.836699C10.8776 0.879556 10.7109 0.89027 10.6998 0.879556C10.6887 0.879556 10.5776 0.858127 10.4887 0.858127C10.3443 0.868841 10.3332 0.868841 10.1221 0.96527C10.0887 0.975984 10.0998 1.05098 10.1665 1.02956C10.2443 1.00813 10.3554 0.986699 10.4776 0.986699C10.6109 0.986699 10.6887 1.02956 10.8221 1.0617C10.9332 1.09384 10.9443 1.11527 11.1109 1.1367C11.1443 1.1367 11.2109 1.11527 11.2109 1.15813C11.2109 1.17956 11.1665 1.2117 11.1665 1.2117C11.1665 1.2117 11.0665 1.23313 11.0776 1.26527C11.0998 1.30813 11.1887 1.26527 11.2332 1.26527C11.2776 1.26527 11.3443 1.27598 11.3332 1.31884L11.3109 1.35098C11.1887 1.38313 11.1221 1.40456 11.0109 1.44741C10.7332 1.55456 10.6221 1.68313 10.3554 1.8117C10.0998 1.92956 9.68872 2.07956 9.68872 2.07956C9.68872 2.07956 9.5665 2.14384 9.38872 2.1867C9.21094 2.22956 9.19983 2.21884 9.07761 2.24027C8.95539 2.25098 8.89983 2.27241 8.79983 2.32598C8.73317 2.35813 8.69983 2.39027 8.64428 2.44384L8.48872 2.66884L8.39983 2.79741C8.37761 2.84027 8.35539 2.8617 8.34428 2.90456C8.32206 2.95813 8.31094 2.97956 8.29983 3.03313C8.2665 3.1617 8.29983 3.2367 8.32206 3.36527C8.33317 3.39741 8.33317 3.41884 8.34428 3.45098C8.35539 3.48313 8.39983 3.51527 8.39983 3.51527L8.44428 3.52598C8.44428 3.52598 8.59983 3.51527 8.69983 3.49384C8.79983 3.47241 8.94428 3.44027 8.94428 3.44027L9.13317 3.3867L9.25539 3.34384C9.25539 3.34384 9.33317 3.34384 9.34428 3.3867C9.35539 3.41884 9.32206 3.47241 9.32206 3.47241C9.32206 3.47241 9.25539 3.50456 9.19983 3.52598C9.14428 3.54741 9.01094 3.57956 8.99983 3.59027L8.85539 3.63313L8.73317 3.64384C8.73317 3.64384 8.71094 3.65456 8.68872 3.6867C8.6665 3.71884 8.6665 3.71884 8.6665 3.74027C8.68872 3.7617 8.69983 3.78313 8.72206 3.80456C8.7665 3.8367 8.78872 3.85813 8.84428 3.86884C8.92206 3.90098 8.9665 3.89027 9.04428 3.89027C9.15539 3.89027 9.22206 3.86884 9.32206 3.82598C9.41094 3.77241 9.44428 3.77241 9.5665 3.72956C9.59983 3.71884 9.6665 3.70813 9.68872 3.70813C9.89983 3.6867 10.0221 3.71884 10.2332 3.75098C10.4443 3.78313 10.5443 3.84741 10.7554 3.87956C10.9776 3.9117 11.1109 3.97598 11.3443 3.92241C11.4554 3.90098 11.5221 3.84741 11.5776 3.95456C11.6332 4.05098 11.6221 4.10456 11.6221 4.10456C11.6221 4.10456 11.6221 4.16884 11.5443 4.37241C11.4665 4.57598 11.2221 5.07956 11.2221 5.07956L11.0554 5.40098C11.0554 5.40098 10.9221 5.65813 10.6109 5.99027C10.2998 6.32241 10.2776 6.34384 10.2776 6.34384C10.2776 6.34384 10.1109 6.4617 9.94428 6.66527C9.77761 6.86884 9.77761 6.94384 9.62206 7.09384C9.52206 7.19027 9.4665 7.24384 9.34428 7.31884C9.22206 7.39384 9.07761 7.37241 8.68872 7.62956C8.35539 7.85456 8.17761 8.0367 8.15539 8.02599C8.13317 8.01527 8.02206 7.92956 7.97761 7.90813C7.94428 7.8867 7.29983 7.46884 7.29983 7.46884L7.03317 7.29741L6.91094 7.22241L6.88872 7.17956L6.82206 7.09384C6.82206 7.09384 6.72206 6.97598 6.59983 6.87956C6.47761 6.77241 6.34428 6.6867 6.14428 6.64384C5.95539 6.59027 5.83317 6.55813 5.64428 6.62241C5.52206 6.66527 5.45539 6.70813 5.3665 6.79384C5.25539 6.90098 5.23317 6.9867 5.14428 7.11527C5.05539 7.24384 4.9665 7.3617 4.92206 7.42599C4.87761 7.49027 4.78872 7.6617 4.78872 7.6617C4.78872 7.6617 4.5665 8.00456 4.44428 8.22956C4.29983 8.47599 4.24428 8.62598 4.11094 8.8617C3.89983 9.2367 3.59983 9.62241 3.52206 9.79384C3.44428 9.96527 3.43317 9.9867 3.43317 9.9867C3.43317 9.9867 3.41094 10.0831 3.39983 10.1474C3.38872 10.2117 3.38872 10.3188 3.37761 10.3617C3.3665 10.4153 3.33317 10.4688 3.32206 10.4796C3.31094 10.4903 3.18872 10.7367 3.14428 10.8974C3.09983 11.0581 2.99983 11.5617 3.12206 11.626C3.24428 11.6903 4.14428 11.3153 4.2665 10.951C4.34428 10.7153 4.02206 10.5974 4.11094 10.3831C4.14428 10.3081 4.1665 10.2974 4.22206 10.2224C4.31094 10.0831 4.27761 9.79384 4.44428 9.52599C4.5665 9.33313 4.81094 9.0867 5.14428 8.72241C5.35539 8.49741 5.55539 8.13313 5.55539 8.13313C5.55539 8.13313 5.59983 8.00456 5.68872 8.02599C5.78872 8.04741 5.87761 8.0367 5.87761 8.0367L5.92206 8.06884L6.01094 8.15456L6.14428 8.34741C6.14428 8.34741 6.3665 8.65813 6.44428 8.74384C6.52206 8.82956 6.59983 8.89384 6.71094 8.97956C6.83317 9.0867 6.87761 9.14027 7.03317 9.25813C7.25539 9.42956 7.17761 9.49384 6.88872 9.34384C6.78872 9.29027 6.63317 9.2367 6.51094 9.20456C6.37761 9.17241 5.87761 9.04384 5.62206 9.0117C5.37761 8.97956 5.33317 8.99027 5.33317 8.99027C5.33317 8.99027 5.21094 8.97956 5.0665 9.06527C4.92206 9.15099 4.84428 9.21527 4.84428 9.21527C4.84428 9.21527 4.67761 9.39741 4.6665 9.42956C4.65539 9.4617 4.57761 9.59027 4.57761 9.59027C4.57761 9.59027 4.53317 9.65456 4.52206 9.72956C4.49983 9.80456 4.51094 9.87956 4.51094 9.87956L4.52206 10.0403L4.53317 10.1903C4.53317 10.1903 4.5665 10.5653 4.64428 10.9403C4.6665 11.0474 4.68872 11.2188 4.68872 11.2188L4.74428 11.6046C4.74428 11.6046 4.77761 12.0117 4.81094 12.151C4.84428 12.2796 4.8665 12.2903 4.88872 12.376C4.93317 12.5367 4.85539 12.6117 4.93317 12.8046C5.01094 12.9974 5.07761 12.976 5.15539 13.0938C5.21094 13.1796 5.23317 13.201 5.27761 13.3081C5.32206 13.4153 5.4665 13.7688 5.63317 14.026C5.81094 14.2938 6.04428 14.626 6.19983 14.5938C6.35539 14.5617 6.4665 14.326 6.4665 14.326C6.4665 14.326 6.64428 13.8653 6.53317 13.4153C6.42206 12.9546 5.91094 13.1688 5.84428 12.8367C5.83317 12.7617 5.84428 12.6438 5.84428 12.6438C5.84428 12.6438 5.83317 12.5046 5.81094 12.4617C5.78872 12.4188 5.61094 12.0974 5.54428 11.8296C5.48872 11.626 5.49983 10.9724 5.45539 10.7903C5.33317 10.3188 5.32206 10.3617 5.38872 10.276C5.4665 10.1903 5.53317 10.2117 5.53317 10.2117L5.63317 10.2224L5.71094 10.2546C5.71094 10.2546 5.79983 10.3081 5.85539 10.3403C5.89983 10.3724 6.05539 10.4903 6.05539 10.4903L6.43317 10.726C6.43317 10.726 6.64428 10.8438 6.73317 10.8867C6.82206 10.9296 6.89983 10.9831 6.89983 10.9831L6.99983 11.0474L7.1665 11.1653L7.19983 11.1974L7.22206 11.2403C7.22206 11.2403 7.29983 11.4117 7.63317 11.5938C7.89983 11.7438 8.13317 11.701 8.23317 11.8188C8.25539 11.8403 8.44428 12.0867 8.53317 12.2367C8.64428 12.4081 8.77761 12.6117 8.82206 12.676C8.8665 12.7403 9.14428 13.0724 9.14428 13.0724L9.51094 13.4581L9.98872 13.8867L10.4221 14.2403L10.6998 14.4546C10.6998 14.4546 10.9443 14.6796 11.2221 14.8617C11.4887 15.0331 11.4998 15.0546 11.6776 15.1724C11.8109 15.2581 11.9887 15.376 12.1665 15.5046C12.3443 15.6438 12.5443 15.901 12.4665 15.9867C12.4109 16.0188 12.3109 15.8796 12.1221 15.7188C11.9665 15.5903 11.8887 15.526 11.7332 15.4188C11.5332 15.2688 11.4332 15.1938 11.2109 15.0653C11.0998 15.001 10.8998 14.8831 10.8887 14.9046C10.8109 15.1296 10.8221 15.3438 10.8332 15.6224C10.8443 15.8153 10.8776 16.0081 10.9443 16.2546C10.9998 16.4903 11.0554 16.6188 11.1443 16.8438C11.2332 17.0688 11.3998 17.4224 11.3998 17.4224L11.6554 17.9153L11.8887 18.2903L12.0109 18.4831L12.0554 18.5474C12.0554 18.5474 12.1109 18.676 12.0554 18.7617C11.9998 18.8474 11.9332 19.0296 11.8332 19.0403C11.7332 19.0617 11.4998 19.0724 11.4998 19.0724L10.1776 19.051L9.48872 18.9974C9.48872 18.9974 9.41094 18.9546 9.01094 18.9546C8.77761 18.9546 8.58872 19.051 8.45539 19.0617C8.34428 19.0724 7.79983 19.0296 7.43317 19.1688C7.08872 19.3081 6.93317 19.3403 6.81094 19.5546C6.72206 19.7153 7.24428 19.9724 7.67761 20.0688C8.37761 20.2188 8.17761 19.9296 8.44428 19.7474C8.47761 19.726 8.48872 19.7046 8.52206 19.6938C8.69983 19.6403 8.79983 19.7796 8.97761 19.7796C9.17761 19.7796 9.28872 19.7153 9.48872 19.6831C10.4998 19.5546 12.0776 20.0153 12.0776 20.0153C12.0776 20.0153 12.4665 20.1331 12.6443 20.101C12.8554 20.0581 12.8109 19.9831 12.8776 19.8653C12.9332 19.7688 12.9109 19.7474 12.9221 19.6403C12.9221 19.576 12.9109 19.5438 12.8998 19.4796C12.8554 19.2974 12.7332 19.0403 12.7332 19.0403C12.7332 19.0403 12.6443 18.8474 12.6109 18.751C12.5665 18.6117 12.5221 18.526 12.4998 18.376C12.4332 17.9796 12.4443 18.0117 12.4443 17.7867C12.4443 17.3796 12.4887 17.1546 12.5998 16.7581C12.7665 16.1796 13.0776 15.9331 13.3109 15.376C13.3776 15.226 13.3776 15.0117 13.4554 14.9903C13.5443 14.9796 13.5332 15.2581 13.4887 15.4188C13.3443 15.976 12.9887 16.2117 12.8221 16.7796C12.6998 17.2188 12.6332 17.476 12.6665 17.926C12.6776 18.1724 12.7776 18.5581 12.7776 18.5581C12.7776 18.5581 12.9109 18.9867 12.9776 19.1474C13.0443 19.3081 13.1776 19.576 13.1776 19.576L13.4776 20.0903L13.6332 20.3367C13.6332 20.3367 13.7443 20.4331 13.6887 20.5938C13.6332 20.7546 13.5221 20.851 13.3887 20.9903C13.0109 21.4188 12.1332 22.051 11.9109 22.201C11.5998 22.426 11.6109 22.4903 11.5887 22.5546C11.4665 22.8974 11.1109 22.9081 10.7221 23.3153C10.6332 23.401 10.3998 23.6367 10.4443 23.8403C10.4665 23.9153 11.4221 24.076 11.9776 23.851C12.4109 23.6688 12.0332 23.4653 12.1554 23.2617C12.2443 23.1117 12.4665 23.1117 12.5665 22.9831C12.7332 22.7688 12.6221 22.7796 12.7665 22.6081C13.2443 22.051 13.5554 21.7296 14.4109 21.226C14.4887 21.1831 14.6332 21.1188 14.6332 21.1188C14.6332 21.1188 14.7554 21.0653 14.7998 21.001C14.8554 20.9153 14.8443 20.8403 14.8443 20.7438C14.8443 20.6796 14.8332 20.6474 14.8332 20.5831C14.8332 20.5081 14.8443 20.4653 14.8221 20.3903C14.7998 20.2724 14.7221 20.176 14.6776 20.1117C14.6332 20.0581 14.5554 19.9617 14.5109 19.7581C14.4554 19.5546 14.4554 19.3831 14.5443 19.1581C14.6332 18.9331 14.8332 18.751 14.8332 18.751L15.3332 18.4296C15.3332 18.4296 15.7665 18.1296 15.8998 18.0117C16.0443 17.8938 16.3221 17.6474 16.5221 17.3688C16.7554 17.0581 16.8776 16.8653 16.9776 16.4903C17.0109 16.351 17.0443 16.1367 17.0443 16.1367C17.0443 16.1367 17.0443 15.9867 17.1332 15.976C17.2221 15.9653 17.2443 15.9974 17.2443 15.9974C17.2443 15.9974 17.3221 16.0403 17.3443 16.2546C17.3554 16.4688 17.2887 16.7153 17.2887 16.7153C17.2887 16.7153 17.2221 16.9617 17.1998 17.1117C17.1887 17.2081 17.1887 17.2617 17.1887 17.3688C17.1887 17.551 17.2665 17.701 17.2665 17.701C17.2665 17.701 17.3109 17.7331 17.3109 17.6581C17.3109 17.5724 17.3332 17.4438 17.3665 17.3153C17.3998 17.2081 17.4221 17.2296 17.4887 17.0474C17.5776 16.8117 17.4998 16.8331 17.5443 16.6938C17.5665 16.6296 17.6221 16.5653 17.6887 16.5653C17.7554 16.5653 17.7665 16.651 17.7665 16.651C17.7665 16.651 17.8332 16.9296 17.7776 17.1867C17.7221 17.4438 17.5221 17.7974 17.5221 17.7974L17.3665 18.0546C17.3665 18.0546 17.2554 18.2367 17.2109 18.3546C17.1665 18.4831 17.1554 18.5367 17.1776 18.6546C17.2109 18.7831 17.3109 18.9546 17.3665 18.9224C17.4109 18.8903 17.2998 18.7831 17.4332 18.526C17.5665 18.2688 17.7443 18.1081 17.7443 18.1081C17.7443 18.1081 17.9887 17.8296 18.0998 17.6153C18.1998 17.4224 18.2998 17.1117 18.2998 17.1117C18.2998 17.1117 18.3776 16.8331 18.3554 16.5974C18.3443 16.3724 18.2998 16.2546 18.2998 16.2546L18.1998 16.0831L18.1443 15.9546L18.1665 15.8796C18.1887 15.8688 18.2665 15.9224 18.3332 16.0081C18.3998 16.0938 18.4665 16.201 18.4998 16.351C18.5332 16.4581 18.5443 16.5546 18.5443 16.651C18.5443 16.7367 18.5109 17.0903 18.6443 17.3153C18.6998 17.4224 18.8332 17.6688 18.8443 17.5617C18.8665 17.3153 18.7554 17.1974 18.7665 16.9724C18.7776 16.7153 18.8443 16.7796 18.8665 16.651C18.8887 16.5117 18.9221 16.4796 18.8998 16.2974C18.8776 16.126 18.7998 15.901 18.7998 15.901L18.7221 15.7296L18.6887 15.6653C18.6887 15.6653 18.7109 15.6331 18.7443 15.6331L19.0109 15.5474C19.0109 15.5474 19.3554 15.3974 19.4887 15.2903C19.6332 15.1938 19.7998 15.0224 19.7998 15.0224C19.7998 15.0224 20.0221 14.7546 20.1332 14.5617C20.3998 14.0796 20.3998 13.4688 20.3887 13.1903C20.3776 12.9224 20.2998 12.5688 20.2998 12.5688C20.2998 12.5688 20.2109 12.1403 20.2332 11.8617C20.2554 11.5831 20.2776 11.4546 20.2776 11.4546C20.2776 11.4546 20.2665 11.176 20.5109 10.876C20.7554 10.576 20.8665 10.3831 20.9109 10.1581C20.9554 9.96527 20.8887 9.65456 20.7998 9.77241V9.77241ZM13.4443 7.84384C13.4109 7.84384 13.3665 7.80099 13.3665 7.80099C13.3665 7.80099 13.3554 7.79027 13.3887 7.76884C13.4221 7.74741 13.4665 7.75813 13.4665 7.75813L13.4998 7.76884L13.5554 7.84384C13.5443 7.87598 13.4776 7.85456 13.4443 7.84384ZM13.5776 7.49027C13.5443 7.47956 13.4887 7.44741 13.4887 7.44741C13.4887 7.44741 13.4776 7.42598 13.5109 7.40456C13.5443 7.38313 13.5998 7.39384 13.5998 7.39384L13.6332 7.41527C13.6443 7.42598 13.6998 7.47956 13.6998 7.50099C13.6998 7.53313 13.6221 7.50099 13.5776 7.49027ZM13.6998 7.12599C13.6554 7.11527 13.5887 7.07241 13.5887 7.07241C13.5887 7.07241 13.5776 7.05098 13.6221 7.02956C13.6665 7.00813 13.7332 7.01884 13.7332 7.01884L13.7776 7.04027C13.7998 7.0617 13.8554 7.11527 13.8554 7.14741C13.8443 7.17956 13.7443 7.1367 13.6998 7.12599ZM13.7998 6.79384C13.7554 6.78313 13.6887 6.74027 13.6887 6.74027C13.6887 6.74027 13.6776 6.71884 13.7221 6.69741C13.7665 6.67598 13.8332 6.6867 13.8332 6.6867L13.8776 6.70813C13.8998 6.72956 13.9554 6.78313 13.9554 6.81527C13.9443 6.8367 13.8443 6.79384 13.7998 6.79384ZM13.8998 6.39741C13.8443 6.3867 13.7776 6.33313 13.7776 6.33313C13.7776 6.33313 13.7665 6.3117 13.8109 6.27956C13.8554 6.24741 13.9332 6.26884 13.9332 6.26884L13.9776 6.29027C13.9998 6.3117 14.0665 6.37598 14.0665 6.40813C14.0665 6.45098 13.9443 6.39741 13.8998 6.39741ZM13.9665 5.96884C13.8998 5.95813 13.8109 5.89384 13.8109 5.89384C13.8109 5.89384 13.7887 5.8617 13.8554 5.82956C13.9109 5.79741 13.9998 5.80813 13.9998 5.80813L14.0554 5.84027C14.0776 5.8617 14.1554 5.94741 14.1665 5.99027C14.1665 6.03313 14.0332 5.97956 13.9665 5.96884V5.96884ZM14.0109 5.54027C13.9332 5.52956 13.8221 5.44384 13.8221 5.44384C13.8221 5.44384 13.7998 5.4117 13.8665 5.36884C13.9332 5.32598 14.0443 5.34741 14.0443 5.34741C14.0443 5.34741 14.0776 5.35813 14.1109 5.37956C14.1443 5.4117 14.2332 5.50813 14.2443 5.5617C14.2554 5.61527 14.0887 5.55098 14.0109 5.54027V5.54027ZM14.0776 5.04741C13.9887 5.0367 13.8665 4.94027 13.8665 4.94027C13.8665 4.94027 13.8443 4.89741 13.9221 4.85456C13.9998 4.80098 14.1221 4.83313 14.1221 4.83313C14.1221 4.83313 14.1665 4.84384 14.1998 4.87598C14.2332 4.90813 14.3443 5.02598 14.3554 5.07956C14.3554 5.14384 14.1665 5.05813 14.0776 5.04741ZM14.0332 3.05456C13.9665 3.04384 13.8776 2.97956 13.8776 2.97956C13.8776 2.97956 13.8554 2.95813 13.9221 2.92598C13.9887 2.89384 14.0776 2.91527 14.0776 2.91527C14.0776 2.91527 14.1109 2.92598 14.1332 2.94741C14.1554 2.96884 14.2443 3.04384 14.2443 3.0867C14.2443 3.11884 14.0998 3.06527 14.0332 3.05456ZM14.2776 3.5367C14.2887 3.57956 14.1332 3.52598 14.0554 3.51527C13.9887 3.50456 13.8887 3.42956 13.8887 3.42956C13.8887 3.42956 13.8665 3.39741 13.9332 3.36527C13.9998 3.32241 14.0887 3.34384 14.0887 3.34384C14.0887 3.34384 14.1221 3.35456 14.1554 3.37598C14.1887 3.40813 14.2665 3.49384 14.2776 3.5367V3.5367ZM13.9554 4.32956C14.0221 4.2867 14.1332 4.30813 14.1332 4.30813C14.1332 4.30813 14.1665 4.31884 14.1998 4.34027C14.2332 4.37241 14.3221 4.46884 14.3332 4.52241C14.3443 4.57598 14.1776 4.5117 14.0998 4.49027C14.0221 4.47956 13.9109 4.39384 13.9109 4.39384C13.9109 4.39384 13.8887 4.37241 13.9554 4.32956ZM14.0998 3.96527C14.0221 3.95456 13.9109 3.86884 13.9109 3.86884C13.9109 3.86884 13.8887 3.8367 13.9554 3.79384C14.0221 3.75098 14.1332 3.77241 14.1332 3.77241C14.1332 3.77241 14.1665 3.78313 14.1998 3.80456C14.2332 3.8367 14.3221 3.93313 14.3332 3.9867C14.3443 4.05098 14.1776 3.9867 14.0998 3.96527V3.96527ZM14.2443 2.35813C14.3332 2.37956 14.3554 2.43313 14.3109 2.43313C14.2665 2.44384 14.2443 2.44384 14.2109 2.44384C14.1109 2.44384 14.1221 2.40098 13.9887 2.46527C13.8554 2.52956 13.9554 2.49741 13.7665 2.5617C13.5887 2.62598 13.6332 2.45456 13.6332 2.45456C13.6332 2.45456 13.6443 2.42241 13.6665 2.3367C13.6887 2.25098 13.7998 2.3367 13.8776 2.3367C14.0221 2.3367 14.1443 2.3367 14.2443 2.35813V2.35813ZM13.7443 1.69384L13.7998 1.72598C13.8221 1.74741 13.8998 1.83313 13.9109 1.87598C13.9221 1.91884 13.7776 1.86527 13.7221 1.85456C13.6554 1.84384 13.5665 1.77956 13.5665 1.77956C13.5665 1.77956 13.5443 1.74741 13.6109 1.71527C13.6665 1.67241 13.7443 1.69384 13.7443 1.69384V1.69384ZM13.3443 1.17956C13.3998 1.14741 13.4887 1.15813 13.4887 1.15813L13.5443 1.19027C13.5665 1.2117 13.6443 1.29741 13.6554 1.34027C13.6665 1.38313 13.5221 1.32956 13.4665 1.31884C13.3998 1.30813 13.3109 1.24384 13.3109 1.24384C13.3109 1.24384 13.2887 1.2117 13.3443 1.17956V1.17956ZM13.2332 8.12241C13.2665 8.10099 13.3109 8.1117 13.3109 8.1117L13.3443 8.12241L13.3998 8.19741C13.3998 8.21884 13.3332 8.1867 13.2998 8.1867C13.2665 8.1867 13.2221 8.14384 13.2221 8.14384C13.2221 8.14384 13.1998 8.13313 13.2332 8.12241V8.12241ZM8.77761 3.02241C8.74428 3.04384 8.72206 3.05456 8.67761 3.0867C8.62206 3.12956 8.5665 3.2367 8.53317 3.20456C8.48872 3.17241 8.51094 3.05456 8.51094 3.05456C8.51094 3.05456 8.54428 2.96884 8.58872 2.88313C8.64428 2.79741 8.71094 2.79741 8.71094 2.79741C8.77761 2.79741 8.89983 2.84027 8.89983 2.9367C8.91094 3.03313 8.83317 2.99027 8.77761 3.02241V3.02241ZM9.68872 3.35456C9.68872 3.35456 9.64428 3.36527 9.63317 3.29027C9.62206 3.21527 9.68872 3.20456 9.68872 3.20456C9.68872 3.20456 9.82206 3.14027 9.82206 3.22598C9.83317 3.30098 9.68872 3.35456 9.68872 3.35456V3.35456ZM10.8776 1.89741C10.8776 1.89741 10.7332 2.12241 10.5332 2.20813C10.3332 2.29384 10.1998 2.3367 9.82206 2.36884C9.7665 2.36884 9.78872 2.3367 9.78872 2.3367C9.78872 2.3367 10.2221 2.21884 10.4665 2.09027C10.5998 2.01527 10.7554 1.91884 10.7998 1.87598C10.9554 1.74741 10.8776 1.89741 10.8776 1.89741V1.89741ZM3.41094 11.176C3.41094 11.2296 3.34428 11.326 3.32206 11.326C3.29983 11.326 3.25539 11.2296 3.2665 11.176C3.27761 11.1224 3.28872 10.9724 3.37761 10.9938C3.44428 11.0046 3.41094 11.1224 3.41094 11.176ZM3.69983 9.96527C3.69983 9.96527 3.59983 10.1688 3.5665 10.0831C3.53317 10.0081 3.59983 9.86884 3.59983 9.86884C3.68872 9.79384 3.72206 9.6867 3.7665 9.72956C3.79983 9.77241 3.69983 9.96527 3.69983 9.96527ZM5.07761 7.87599C4.97761 7.98313 4.6665 8.55099 4.59983 8.45456C4.53317 8.37956 4.89983 7.84384 4.97761 7.7367C5.05539 7.61884 5.12206 7.64027 5.12206 7.64027L5.14428 7.6617C5.13317 7.6617 5.17761 7.76884 5.07761 7.87599V7.87599ZM5.91094 7.02956C5.91094 7.02956 5.68872 7.07241 5.72206 6.99741C5.7665 6.92241 5.92206 6.89027 5.92206 6.89027C6.04428 6.9117 6.0665 6.92241 6.05539 6.97598C6.0665 7.02956 5.91094 7.02956 5.91094 7.02956ZM6.81094 8.52956C6.71094 8.62598 6.67761 8.49741 6.53317 8.3367C6.38872 8.1867 6.42206 8.05813 6.42206 8.05813H6.44428L6.4665 8.06884L6.52206 8.09027L6.55539 8.12241L6.6665 8.22956C6.71094 8.29384 6.83317 8.50813 6.81094 8.52956ZM5.08872 11.7331C5.05539 11.7331 5.02206 11.6688 5.02206 11.6688C5.02206 11.6688 4.93317 11.5403 4.89983 11.4438C4.8665 11.3581 4.85539 11.2188 4.85539 11.2188C4.85539 11.2188 4.83317 11.0367 4.83317 10.9724C4.84428 10.8867 4.84428 10.8117 4.85539 10.7688C4.8665 10.726 4.91094 10.7367 4.91094 10.7367C4.97761 10.7367 4.97761 10.7903 4.97761 10.7903V10.8224C4.97761 10.8224 4.97761 11.0153 4.98872 11.1653C4.98872 11.2081 5.11094 11.6903 5.11094 11.6903C5.11094 11.6903 5.13317 11.7331 5.08872 11.7331V11.7331ZM5.0665 9.48313C4.98872 9.60099 4.93317 9.60099 4.93317 9.60099C4.93317 9.59027 4.91094 9.54741 4.97761 9.41884C5.04428 9.29027 5.11094 9.30099 5.11094 9.30099L5.13317 9.32241C5.13317 9.32241 5.14428 9.36527 5.0665 9.48313V9.48313ZM5.85539 13.9724C5.87761 13.9296 6.02206 14.0367 6.02206 14.0367C6.07761 14.0474 6.13317 14.1438 6.13317 14.1438C6.13317 14.1438 6.15539 14.2188 6.08872 14.2403C6.02206 14.2724 5.97761 14.2081 5.97761 14.2081C5.97761 14.2081 5.83317 14.0153 5.85539 13.9724ZM6.89983 10.6938C6.74428 10.6617 6.41094 10.4153 6.27761 10.351C6.14428 10.2867 5.92206 10.2653 6.02206 10.1796C6.03317 10.1688 6.04428 10.1474 6.0665 10.1474C6.08872 10.1474 6.18872 10.1796 6.18872 10.1796L6.43317 10.276C6.44428 10.276 6.5665 10.3296 6.6665 10.3831C6.75539 10.4367 6.91094 10.5331 6.91094 10.5331L6.97761 10.5867C6.97761 10.6081 7.05539 10.726 6.89983 10.6938V10.6938ZM8.25539 8.5617C8.25539 8.5617 8.0665 8.80813 7.95539 8.95813C7.81094 9.1617 7.63317 9.47241 7.59983 9.44027C7.5665 9.40813 7.75539 9.06527 7.85539 8.88313C7.9665 8.65813 8.13317 8.54027 8.19983 8.51884C8.34428 8.45456 8.25539 8.5617 8.25539 8.5617V8.5617ZM7.65539 19.2867C7.65539 19.2867 7.65539 19.3296 7.57761 19.3831C7.49983 19.4367 7.4665 19.4046 7.45539 19.4046C7.44428 19.4046 7.3665 19.3617 7.3665 19.3188C7.37761 19.276 7.49983 19.2438 7.49983 19.2438C7.71094 19.2331 7.65539 19.2867 7.65539 19.2867ZM9.37761 19.2224C9.29983 19.2117 9.28872 19.1903 9.29983 19.1796C9.29983 19.1688 9.32206 19.1474 9.41094 19.1474C9.49983 19.1474 9.49983 19.1903 9.49983 19.1903C9.49983 19.2224 9.4665 19.2331 9.37761 19.2224V19.2224ZM11.3554 19.3296C11.1887 19.3724 11.1221 19.351 10.9776 19.3617C10.8554 19.3724 10.7998 19.3831 10.6776 19.3831C10.4665 19.3831 10.4443 19.3938 10.1443 19.3081C10.0887 19.2867 10.0221 19.2224 10.0443 19.201C10.0665 19.1688 10.1109 19.1796 10.1109 19.1796C10.1109 19.1796 10.4887 19.2438 10.7332 19.2546C10.9109 19.2653 10.9998 19.276 11.1776 19.2653C11.2776 19.2653 11.2221 19.2546 11.3776 19.2546C11.4332 19.2438 11.3998 19.3188 11.3554 19.3296V19.3296ZM12.4109 19.0296C12.3998 19.0403 12.3332 19.0617 12.2776 19.0724C12.2109 19.0831 12.2443 19.0296 12.2443 19.0296C12.2443 19.0296 12.2887 18.9653 12.3443 18.9331C12.4109 18.901 12.4443 18.9331 12.4443 18.9331C12.4665 18.976 12.4221 19.0188 12.4109 19.0296V19.0296ZM13.2332 16.9724C13.1554 17.1331 13.1332 17.1867 13.1221 17.3367C13.0998 17.4974 13.1998 17.9474 13.0443 17.776C12.9887 17.701 12.9332 17.3474 12.9776 17.176C13.0554 16.7903 13.3776 16.6831 13.2332 16.9724ZM10.9887 23.5188C10.9221 23.5617 11.0554 23.6903 10.8443 23.6796C10.7221 23.6688 10.7887 23.5617 10.7998 23.551L10.8776 23.4438C10.9332 23.3688 10.9665 23.3581 11.0221 23.326C11.0776 23.2938 11.1221 23.3796 11.1221 23.3796C11.1221 23.3796 11.1443 23.4117 11.1443 23.4546C11.1443 23.4867 11.0443 23.476 10.9887 23.5188ZM12.1554 22.4367L12.0554 22.5117C12.0443 22.5117 11.9776 22.5653 11.9554 22.5331C11.9332 22.501 11.9665 22.4581 11.9665 22.4474C11.9665 22.4367 12.0332 22.3617 12.0887 22.3403C12.1443 22.3081 12.1776 22.3403 12.1776 22.3403C12.2109 22.4153 12.1554 22.4367 12.1554 22.4367V22.4367ZM12.6776 3.66527C12.6776 3.66527 12.6332 3.80456 12.5443 3.8367C12.4332 3.86884 12.0109 3.87956 11.9998 3.84741C11.9887 3.81527 12.4887 3.77241 12.6776 3.59027C12.7221 3.54741 12.6776 3.66527 12.6776 3.66527V3.66527ZM12.5221 3.3117C12.5554 3.25813 12.5332 3.39741 12.5332 3.39741C12.5332 3.39741 12.4998 3.5367 12.4221 3.57956C12.3221 3.63313 12.0776 3.69741 12.0554 3.66527C12.0554 3.64384 12.3776 3.54741 12.5221 3.3117ZM11.8332 1.70456C11.8332 1.70456 11.8776 1.70456 11.9443 1.7367C12.0109 1.77956 12.0554 1.90813 12.0554 1.90813C12.0554 1.90813 12.0665 1.92956 12.0109 1.92956C11.9776 1.92956 11.9776 1.87598 11.9443 1.85456C11.8998 1.82241 11.8665 1.8117 11.8109 1.79027C11.7554 1.76884 11.6776 1.80098 11.6665 1.74741C11.6665 1.68313 11.8332 1.70456 11.8332 1.70456V1.70456ZM11.3221 2.05813C11.3221 2.05813 11.3443 1.99384 11.4443 1.94027C11.5332 1.8867 11.6554 1.8867 11.6554 1.8867C11.6554 1.8867 11.7221 1.8867 11.7998 1.94027C11.8776 1.99384 11.9443 2.17598 11.9443 2.17598C11.9443 2.17598 11.9665 2.29384 11.9109 2.3367C11.8554 2.37956 11.7665 2.30456 11.7221 2.24027C11.6665 2.17598 11.6332 2.15456 11.5554 2.13313C11.4665 2.10098 11.3332 2.19741 11.3109 2.13313C11.3109 2.1117 11.3221 2.05813 11.3221 2.05813V2.05813ZM11.2887 3.5367C11.2221 3.54741 11.2665 3.48313 11.2665 3.48313C11.2665 3.48313 11.4554 3.40813 11.5776 3.34384C11.7776 3.24741 12.1554 2.8617 12.0554 3.04384C12.0109 3.12956 11.8776 3.2367 11.8776 3.2367C11.8776 3.2367 11.7221 3.45098 11.6887 3.48313C11.5443 3.59027 11.3665 3.52598 11.2887 3.5367ZM9.72206 7.69384L9.73317 7.67241C9.73317 7.67241 10.0665 7.45813 10.5887 7.52241C10.8998 7.56527 11.1998 7.83313 11.1554 7.86527C11.1109 7.89741 11.0443 7.86527 11.0221 7.86527L10.9109 7.8117L10.7443 7.76884C10.7443 7.76884 10.4443 7.70456 10.2221 7.71527C9.99983 7.72599 9.79983 7.80099 9.79983 7.80099C9.79983 7.80099 9.71094 7.84384 9.68872 7.79027C9.67761 7.72598 9.72206 7.69384 9.72206 7.69384ZM10.5443 13.726C9.77761 13.1581 8.84428 12.001 8.95539 11.8938C9.05539 11.8081 9.43317 12.3438 9.99983 12.9331C10.5998 13.5546 11.2998 14.1438 11.3221 14.2188C11.3665 14.3474 10.8332 13.9403 10.5443 13.726ZM12.2887 5.72241C11.9665 6.25813 11.5221 6.66527 11.5221 6.66527C11.3665 6.77241 11.4665 6.57956 11.4665 6.57956C11.4665 6.57956 11.8998 6.00098 12.0998 5.59384C12.2443 5.30456 12.3332 4.91884 12.3998 4.84384C12.5554 4.6617 12.4776 5.40098 12.2887 5.72241ZM13.1776 11.5938C12.8443 11.2081 12.5998 10.7903 12.5221 10.2653C12.4998 10.1474 12.4998 9.97599 12.6109 9.99741C12.7109 10.0081 12.6998 10.1903 12.6998 10.2331C12.7332 10.5438 12.8665 10.8546 13.1109 11.2296C13.4554 11.7546 14.0109 12.1617 13.9887 12.1938C13.9332 12.2474 13.3776 11.8296 13.1776 11.5938ZM13.2776 21.6117C13.0887 21.7831 12.7665 22.0188 12.7665 22.0188H12.7221V21.9653L12.7332 21.9438L12.7554 21.9117L12.7776 21.8796L12.7998 21.8474L12.8665 21.7724L13.0221 21.6331L13.1776 21.4938L13.4221 21.2581C13.4221 21.2581 13.5109 21.1617 13.5443 21.1403C13.5776 21.1188 13.5998 21.0974 13.6332 21.076C13.6776 21.0546 13.7332 21.0224 13.7554 21.0438V21.0867C13.7665 21.1188 13.4776 21.4296 13.2776 21.6117ZM13.9665 13.6831C13.8221 13.7796 13.7665 13.7688 13.6776 13.8653C13.5776 13.9831 13.5443 14.3796 13.4443 14.2188C13.3443 14.0581 13.4109 13.8331 13.5776 13.6617C13.7776 13.4367 14.2109 13.5117 13.9665 13.6831V13.6831ZM14.4887 20.7331C14.5554 20.7117 14.5887 20.7224 14.5887 20.7224L14.6109 20.7653C14.6109 20.776 14.5221 20.8938 14.4776 20.8938C14.4221 20.8831 14.4443 20.8188 14.4443 20.8188C14.4443 20.8188 14.4221 20.7546 14.4887 20.7331V20.7331ZM16.3887 16.3724C16.2887 16.3081 16.4443 16.1153 16.4443 15.9546C16.4443 15.826 16.4221 15.7296 16.4221 15.6224C16.4221 15.5153 16.5332 15.4831 16.5332 15.4831C16.5554 15.4831 16.5998 15.5046 16.6554 15.6117C16.7109 15.7188 16.5665 16.4796 16.3887 16.3724V16.3724ZM19.7887 13.3081C19.7665 13.7581 19.7443 14.0796 19.4665 14.4224C19.1332 14.8403 18.5554 15.2688 18.6776 14.926C18.7554 14.7224 19.2665 14.4653 19.4665 13.8974C19.5776 13.5546 19.5998 13.2331 19.5998 13.2331L19.5776 12.5796C19.5776 12.5796 19.5665 12.526 19.5665 12.451C19.5998 12.3653 19.6443 12.4296 19.6443 12.4296L19.6665 12.4617C19.6665 12.4831 19.7998 12.9867 19.7887 13.3081V13.3081Z" fill="#555555" stroke-width="0px"></path>

</svg>