<svg xmlns:xlink="http://www.w3.org/1999/xlink" xmlns="http://www.w3.org/2000/svg" class="inline-icon inline-icon--medium inline-icon--dark-grey" viewBox="0 0 24 24" width="32"  height="32" >
<path d="M5.414 10.013c-.374-.007-1.996-.012-2.942-.012H0v.961c1.99 0 4.35-.005 5.384.013.184.002.367.022.512.162.136.13.182.334.122.511-.096.288-.366.357-.634.363-.41.007-1.535.01-2.375.01-2.06.002-1.167 0-3.009 0v.958c1.99 0 4.355-.005 5.384.013.32.004.66.124.66.514s-.34.514-.66.519c-1.027.018-3.395.012-5.384.012V15c1.996 0 4.608.007 5.414-.013.424-.01 1.054-.127 1.42-.726a1.453 1.453 0 0 0-.192-1.76c.452-.47.535-1.201.191-1.76-.367-.6-.995-.714-1.42-.727Zm15.858.015c-.526-.013-1.322-.02-2.023-.023-1.713-.007-.684-.005-2.315-.005v.964c1.738 0 2.954-.015 4.294.025.395.012.817.057 1.198.342.36.27.575.701.575 1.166 0 .464-.208.896-.568 1.168-.38.285-.803.33-1.198.342-1.34.04-2.559.025-4.294.025l-.007.964c1.747 0 3.002.007 4.338-.028.536-.012 1.193-.08 1.803-.552A2.417 2.417 0 0 0 24 12.494c0-.774-.349-1.475-.925-1.922v.008c-.607-.472-1.267-.54-1.803-.552ZM9.141 11.484c-.003-.465 0-1.014 0-1.483H8.114c0 .474-.01 1.438.01 1.905.034.903.306 1.185 1.16 1.218.593.022 1.061.015 1.88.012v-.968c-.655 0-.922 0-1.407-.008-.466-.01-.614-.175-.616-.676Zm3.798.684c.48 0 1.066-.003 1.288-.008.466-.01.614-.17.616-.659h.007v-1.5h1.025v1.458c-.003.17-.005.324-.01.447-.034.91-.309 1.188-1.216 1.218-.295.012-1.08.012-1.707.012h-.123V15h-1.207v-2.831h1.327Z" fill="#555555" stroke-width="0px"></path>

</svg>