<svg xmlns:xlink="http://www.w3.org/1999/xlink" xmlns="http://www.w3.org/2000/svg" class="inline-icon inline-icon--medium inline-icon--dark-grey inline-make-icon--large-shape" viewBox="0 0 24 24" width="32"  height="32" >
<path d="M12 0C5.373 0 0 5.373 0 12s5.373 12 12 12 12-5.373 12-12S18.627 0 12 0Zm0 23.484C5.657 23.484.516 18.343.516 12S5.657.516 12 .516 23.484 5.657 23.484 12 18.343 23.484 12 23.484Z" fill="#555555" stroke-width="0px"></path>
<path d="M11.829 7.348V6.94h-.058a.618.618 0 0 0-.434.176l-.995.996h.723a.953.953 0 0 1 .764-.764ZM13.211 9.04a.586.586 0 0 0-.586-.585h-.453v.411a.606.606 0 0 0 .149-.067h.478a.953.953 0 0 1-.627.42v.406h.453a.586.586 0 0 0 .586-.585ZM11.393 8.284c0 .275.184.508.435.582V7.701a.608.608 0 0 0-.435.583ZM13.211 7.526a.586.586 0 0 0-.586-.586h-.453v.408a.953.953 0 0 1 .627.42h-.478a.611.611 0 0 0-.15-.067v.41h.454a.586.586 0 0 0 .586-.585Z" fill="#555555" stroke-width="0px"></path>
<path d="M21.006 12.143s-5.053-5.918-6.254-7.12l-.003-.003a3.892 3.892 0 0 0-5.504 0l-.003.003c-1.207 1.194-6.248 7.12-6.248 7.12a3.114 3.114 0 0 0-.631 2.281A3.126 3.126 0 0 0 3.69 16.63s2.125 1.657 8.333 1.657 8.287-1.657 8.287-1.657a3.126 3.126 0 0 0 .696-4.486Zm-14.48 3.494H4.227v-3.15h.684v2.489h1.694l-.08.661Zm2.043.048a1.626 1.626 0 1 1 0-3.252 1.626 1.626 0 0 1 0 3.252Zm3.773-2.54v2.492h-.684v-2.492h-1.015l.08-.657h2.558l.08.657h-1.019Zm-.344-2.19A2.673 2.673 0 0 1 9.43 9.024l-.93.93h-.485l1.333-1.334a2.671 2.671 0 0 1 5.122-1.35h-.375a2.328 2.328 0 0 0-4.422 1.017v.008l1.422-1.422a.961.961 0 0 1 .675-.275h.855a.93.93 0 0 1 .538 1.686.928.928 0 0 1-.538 1.685h-.797v-.75a.953.953 0 0 1-.763-.763H9.998l-.28.28-.002.002a2.328 2.328 0 0 0 4.373.578h.375a2.672 2.672 0 0 1-2.466 1.64Zm4.885 3.329a1.402 1.402 0 0 1-2.804 0v-1.796h.68v1.796a.722.722 0 0 0 1.443 0v-1.796h.68v1.796Zm3.113.92a.977.977 0 0 1-.433.351c-.192.087-.426.13-.702.13a2.38 2.38 0 0 1-.692-.1 1.74 1.74 0 0 1-.451-.202l.08-.665.072.057c.13.099.283.178.46.238.179.06.357.09.535.09.198 0 .345-.031.44-.092.094-.062.142-.143.142-.245a.238.238 0 0 0-.084-.186.63.63 0 0 0-.216-.118 4.222 4.222 0 0 0-.355-.099 4.747 4.747 0 0 1-.565-.17.916.916 0 0 1-.377-.274c-.105-.125-.157-.292-.157-.501 0-.183.047-.348.142-.495a.964.964 0 0 1 .429-.352 1.69 1.69 0 0 1 .7-.13c.193 0 .38.024.565.071.183.048.344.117.482.207l-.215.55a1.634 1.634 0 0 0-.836-.246c-.195 0-.34.033-.433.099a.304.304 0 0 0-.14.26c0 .107.054.187.161.24.108.052.273.103.494.154.23.057.418.114.564.17a.935.935 0 0 1 .377.27c.105.122.158.288.158.497a.88.88 0 0 1-.145.49Z" fill="#555555" stroke-width="0px"></path>
<path d="M8.57 15.036a.98.98 0 1 0 0-1.958.98.98 0 0 0 0 1.958Z" fill="#555555" stroke-width="0px"></path>

</svg>