<svg xmlns:xlink="http://www.w3.org/1999/xlink" xmlns="http://www.w3.org/2000/svg" class="inline-icon inline-icon--medium inline-icon--dark-grey" viewBox="0 0 24 24" width="32"  height="32" >
<path d="M2.28812 13.7655H2.92948L3.15699 13.5321L3.38646 13.2987V11H2.28812V13.7655Z" fill="#555555" stroke-width="0px"></path>
<path d="M4.475 11.0235C4.46912 11.0373 4.34555 11.6453 4.20041 12.3729C4.05332 13.1006 3.92975 13.7125 3.92387 13.7302C3.91406 13.7635 3.93956 13.7655 4.28671 13.7655C4.49265 13.7655 4.66133 13.7615 4.66133 13.7576C4.66133 13.7478 5.04378 11.8551 5.07517 11.71L5.09674 11.608H5.5753C5.83812 11.608 6.05387 11.6002 6.05387 11.5904C6.05387 11.5747 5.96561 11.1294 5.94599 11.0431L5.93619 11H5.20854C4.6476 11 4.48088 11.0059 4.475 11.0235Z" fill="#555555" stroke-width="0px"></path>
<path d="M6.09309 11.0177C6.09309 11.0275 6.21666 11.6472 6.36768 12.3945C6.5187 13.1418 6.64227 13.7557 6.64227 13.7596C6.64227 13.7635 6.80898 13.7655 7.01296 13.7655H7.38169L7.10318 12.3886L6.82663 11.0098L6.45986 11.0039C6.23627 11.002 6.09309 11.0059 6.09309 11.0177Z" fill="#555555" stroke-width="0px"></path>
<path d="M8.05442 13.7655H8.7605L8.75658 12.3886L8.75069 11.0098L8.40354 11.0039L8.05442 11V13.7655Z" fill="#555555" stroke-width="0px"></path>
<path d="M8.89779 11.608H11.4671V11H8.89779V11.608Z" fill="#555555" stroke-width="0px"></path>
<path d="M12.5596 11.0922C12.5125 11.1451 12.4105 11.2569 12.334 11.3432L12.1928 11.5001V13.281L12.4321 13.5242L12.6714 13.7655H12.8989V11H12.7734C12.6478 11 12.6459 11 12.5596 11.0922Z" fill="#555555" stroke-width="0px"></path>
<path d="M13.044 11.0255C13.0401 11.0392 13.0381 11.1746 13.0401 11.3236L13.046 11.5982H15.6153V11.0098L14.3346 11.0039C13.297 11 13.0519 11.0039 13.044 11.0255Z" fill="#555555" stroke-width="0px"></path>
<path d="M16.6784 11.0922C16.6313 11.1451 16.5293 11.2569 16.4528 11.3432L16.3116 11.5001V13.281L16.5509 13.5242L16.7902 13.7655H17.9787V13.1771H17.2609L17.1393 13.0417L17.0177 12.9044V11.8591L17.2373 11.608H17.9787V11H16.7647L16.6784 11.0922Z" fill="#555555" stroke-width="0px"></path>
<path d="M18.1239 11.0255C18.1199 11.0392 18.118 11.1746 18.1199 11.3236L18.1258 11.5982L18.4926 11.6041L18.8594 11.608L18.9672 11.7296L19.0771 11.8493V12.926L18.9555 13.0515L18.8358 13.1771H18.116V13.7655H19.3222L19.5537 13.5223L19.7831 13.2791V11.4923L19.5635 11.2452L19.3438 11H18.7397C18.2612 11 18.1317 11.0059 18.1239 11.0255Z" fill="#555555" stroke-width="0px"></path>
<path d="M20.5481 11.4864V12.3867L20.55 13.2849L21.0031 13.7655H22.2152V13.1771H21.4973L21.2541 12.9299V11.8394L21.4562 11.6178L22.2054 11.5982V11.0098L21.5935 11.0039L20.9835 11L20.5481 11.4864Z" fill="#555555" stroke-width="0px"></path>
<path d="M22.3407 11.0255C22.3368 11.0392 22.3348 11.1746 22.3368 11.3236L22.3427 11.5982L23.0919 11.6178L23.2939 11.8394V12.9339L23.0468 13.1771H22.3329V13.7655H23.545L23.7725 13.5262L24 13.2849V12.3827L23.998 11.4805L23.7823 11.2393L23.5646 11H22.9585C22.478 11 22.3486 11.0059 22.3407 11.0255Z" fill="#555555" stroke-width="0px"></path>
<path d="M8.89779 12.6867H11.2906V12.0983H8.89779V12.6867Z" fill="#555555" stroke-width="0px"></path>
<path d="M-0.085083 13.1869C-0.085083 13.1947 0.0227899 13.3261 0.15616 13.4811L0.395442 13.7655H2.15083V13.1771H1.03287C0.417017 13.1771 -0.085083 13.181 -0.085083 13.1869Z" fill="#555555" stroke-width="0px"></path>
<path d="M8.89779 13.7655H11.4671V13.1771H8.89779V13.7655Z" fill="#555555" stroke-width="0px"></path>
<path d="M13.0362 13.7655H15.6251V13.1771H13.0362V13.7655Z" fill="#555555" stroke-width="0px"></path>

</svg>